<svg xmlns="http://www.w3.org/2000/svg" viewBox="0 0 512 512" width="512" height="512">
  <defs>
    <linearGradient id="bg512" x1="0%" y1="0%" x2="100%" y2="100%">
      <stop offset="0%" style="stop-color:#1e0a3c"/>
      <stop offset="100%" style="stop-color:#060612"/>
    </linearGradient>
    <linearGradient id="ship512" x1="256" y1="80" x2="256" y2="340" gradientUnits="userSpaceOnUse">
      <stop offset="0%" style="stop-color:#b388ff"/>
      <stop offset="100%" style="stop-color:#6d28d9"/>
    </linearGradient>
    <linearGradient id="flame512" x1="256" y1="340" x2="256" y2="430" gradientUnits="userSpaceOnUse">
      <stop offset="0%" style="stop-color:#fbbf24"/>
      <stop offset="50%" style="stop-color:#f97316"/>
      <stop offset="100%" style="stop-color:#ef4444;stop-opacity:0"/>
    </linearGradient>
  </defs>
  <circle cx="256" cy="256" r="256" fill="url(#bg512)"/>
  <!-- 星星 -->
  <circle cx="80" cy="100" r="3" fill="#e8d5f5" opacity="0.6"/>
  <circle cx="420" cy="140" r="2.5" fill="#e8d5f5" opacity="0.4"/>
  <circle cx="120" cy="390" r="3" fill="#e8d5f5" opacity="0.5"/>
  <circle cx="430" cy="350" r="4" fill="#e8d5f5" opacity="0.3"/>
  <circle cx="180" cy="75" r="2" fill="#67e8f9" opacity="0.6"/>
  <circle cx="380" cy="420" r="2.5" fill="#67e8f9" opacity="0.4"/>
  <circle cx="60" cy="250" r="1.5" fill="#fbbf24" opacity="0.3"/>
  <circle cx="450" cy="220" r="2" fill="#fbbf24" opacity="0.2"/>
  <!-- 飞船 -->
  <path d="M256 80L200 305H312L256 80Z" fill="url(#ship512)" stroke="rgba(232,213,245,0.3)" stroke-width="2"/>
  <circle cx="256" cy="185" r="20" fill="#67e8f9" opacity="0.8"/>
  <circle cx="256" cy="185" r="10" fill="#ffffff" opacity="0.3"/>
  <path d="M200 305L155 370H215L200 305Z" fill="rgba(109,40,217,0.6)" stroke="rgba(232,213,245,0.2)" stroke-width="1"/>
  <path d="M312 305L357 370H297L312 305Z" fill="rgba(109,40,217,0.6)" stroke="rgba(232,213,245,0.2)" stroke-width="1"/>
  <path d="M230 370L256 430L282 370" fill="url(#flame512)"/>
</svg>